<svg width="25" height="25" viewBox="0 0 25 25" fill="none" xmlns="http://www.w3.org/2000/svg">
<path fill-rule="evenodd" clip-rule="evenodd" d="M14.6987 3.15948C14.7018 3.11905 14.7034 3.07579 14.7034 3.02954C14.7034 1.92497 13.808 1.02954 12.7034 1.02954C11.5988 1.02954 10.7034 1.92497 10.7034 3.02954C10.7034 3.07579 10.705 3.11904 10.708 3.15946C9.1442 3.38181 7.95109 3.88821 7.05523 4.66798C5.8135 5.74882 5.31119 7.21134 5.03486 8.63018C4.89637 9.34125 4.80777 10.0817 4.72347 10.7899L4.72036 10.816C4.63566 11.5275 4.55435 12.2107 4.43121 12.8762C4.1823 14.2213 3.7808 15.3783 2.95835 16.2969C2.75508 16.524 2.66643 16.8313 2.71755 17.1317C2.76867 17.4321 2.95399 17.6929 3.22091 17.8399C4.8519 18.7383 6.75773 19.3537 8.75965 19.6981C8.76672 19.7398 8.77444 19.7813 8.78282 19.8227C8.89382 20.3714 9.11893 20.8915 9.4444 21.3488C9.8104 21.8631 10.2929 22.2835 10.8525 22.5756C11.4121 22.8676 12.0329 23.0231 12.6641 23.0293C13.2953 23.0355 13.9191 22.8923 14.4843 22.6112C15.0495 22.3302 15.5402 21.9193 15.9162 21.4123C16.2506 20.9615 16.4859 20.4459 16.6076 19.8995C16.6225 19.8328 16.6357 19.7657 16.6471 19.6981C18.649 19.3537 20.5549 18.7383 22.1858 17.8399C22.4528 17.6929 22.6381 17.4321 22.6892 17.1317C22.7403 16.8313 22.6517 16.524 22.4484 16.2969C21.626 15.3783 21.2244 14.2213 20.9755 12.8762C20.8524 12.2107 20.771 11.5275 20.6863 10.8159L20.6832 10.7898C20.5989 10.0816 20.5103 9.34123 20.3718 8.63016C20.0954 7.21132 19.5931 5.74881 18.3514 4.66798C17.4555 3.88823 16.2625 3.38185 14.6987 3.15948ZM14.4716 19.9641C13.8834 20.0078 13.2926 20.0295 12.7034 20.0295C12.1141 20.0295 11.5233 20.0078 10.9352 19.9641C10.9763 20.0419 11.0226 20.1171 11.0739 20.1892C11.2569 20.4463 11.4982 20.6565 11.778 20.8025C12.0578 20.9486 12.3681 21.0263 12.6838 21.0294C12.9994 21.0325 13.3112 20.9609 13.5938 20.8204C13.8764 20.6798 14.1218 20.4744 14.3098 20.2209C14.3703 20.1393 14.4244 20.0534 14.4716 19.9641ZM12.7034 18.0295C10.0206 18.0295 7.37594 17.5397 5.21499 16.5939C5.86107 15.5272 6.19026 14.3618 6.39783 13.2401C6.53285 12.5104 6.62074 11.7718 6.7031 11.0796L6.70945 11.0263C6.79519 10.306 6.87596 9.63901 6.99798 9.01251C7.24265 7.75621 7.62584 6.82283 8.36833 6.17655C9.10859 5.53221 10.3744 5.02954 12.7033 5.02954C15.0322 5.02954 16.298 5.53221 17.0383 6.17655C17.7808 6.82284 18.164 7.75623 18.4087 9.01253C18.5307 9.63902 18.6115 10.306 18.6972 11.0263L18.7036 11.0796C18.786 11.7718 18.8739 12.5104 19.0089 13.2401C19.2165 14.3618 19.5457 15.5272 20.1918 16.5939C18.0308 17.5397 15.3862 18.0295 12.7034 18.0295Z" fill="white"/>
</svg>
