<svg width="25" height="25" viewBox="0 0 25 25" fill="none" xmlns="http://www.w3.org/2000/svg">
<g clip-path="url(#clip0_383_734)">
<path d="M12.5664 0.756348C13.1187 0.756348 13.5664 1.20406 13.5664 1.75635C13.5664 2.30863 13.1187 2.75635 12.5664 2.75635C7.04356 2.75635 2.56641 7.2335 2.56641 12.7563C2.56641 18.2792 7.04356 22.7563 12.5664 22.7563C15.0884 22.7563 17.3903 21.824 19.1498 20.2838C19.5653 19.92 20.1971 19.962 20.5609 20.3776C20.9246 20.7931 20.8827 21.4249 20.4671 21.7887C18.3569 23.6358 15.5913 24.7563 12.5664 24.7563C5.93899 24.7563 0.566406 19.3838 0.566406 12.7563C0.566406 6.12893 5.93899 0.756348 12.5664 0.756348Z" fill="white"/>
<path d="M13.5664 5.75635C13.5664 5.20406 13.1187 4.75635 12.5664 4.75635C12.0141 4.75635 11.5664 5.20406 11.5664 5.75635V12.7563C11.5664 13.0216 11.6717 13.2759 11.8593 13.4635L15.3593 16.9635C15.7498 17.354 16.383 17.354 16.7735 16.9635C17.164 16.5729 17.164 15.9398 16.7735 15.5492L13.5664 12.3421V5.75635Z" fill="white"/>
<path d="M22.6016 17.3905C22.1233 17.1144 21.5117 17.2782 21.2356 17.7565C20.9594 18.2348 21.1233 18.8464 21.6016 19.1226C22.0799 19.3987 22.6915 19.2348 22.9676 18.7565C23.2438 18.2782 23.0799 17.6667 22.6016 17.3905Z" fill="white"/>
<path d="M22.4231 14.4926C22.519 13.9487 23.0377 13.5855 23.5816 13.6814C24.1255 13.7773 24.4886 14.296 24.3927 14.8399C24.2968 15.3838 23.7782 15.747 23.2343 15.6511C22.6904 15.5552 22.3272 15.0365 22.4231 14.4926Z" fill="white"/>
<path d="M23.2342 9.86126C22.6903 9.95716 22.3271 10.4758 22.423 11.0197C22.5189 11.5636 23.0376 11.9268 23.5814 11.8309C24.1253 11.735 24.4885 11.2163 24.3926 10.6724C24.2967 10.1285 23.778 9.76536 23.2342 9.86126Z" fill="white"/>
<path d="M21.2351 7.75653C20.9589 7.27824 21.1228 6.66665 21.6011 6.39051C22.0794 6.11437 22.691 6.27824 22.9671 6.75653C23.2433 7.23483 23.0794 7.84642 22.6011 8.12256C22.1228 8.3987 21.5112 8.23483 21.2351 7.75653Z" fill="white"/>
<path d="M18.8792 3.68701C18.5242 4.11009 18.5794 4.74084 19.0024 5.09584C19.4255 5.45085 20.0563 5.39566 20.4113 4.97259C20.7663 4.54951 20.7111 3.91876 20.288 3.56376C19.8649 3.20875 19.2342 3.26394 18.8792 3.68701Z" fill="white"/>
<path d="M15.9953 3.35963C15.4763 3.17074 15.2087 2.5969 15.3976 2.07792C15.5865 1.55894 16.1603 1.29135 16.6793 1.48025C17.1983 1.66914 17.4659 2.24298 17.277 2.76196C17.0881 3.28094 16.5142 3.54852 15.9953 3.35963Z" fill="white"/>
</g>
<defs>
<clipPath id="clip0_383_734">
<rect width="24" height="24" fill="white" transform="translate(0.566406 0.756348)"/>
</clipPath>
</defs>
</svg>
