<svg width="26" height="20" viewBox="0 0 26 20" fill="none" xmlns="http://www.w3.org/2000/svg">
<path fill-rule="evenodd" clip-rule="evenodd" d="M0.888916 3.33258C0.888916 1.50836 2.36774 0.029541 4.19196 0.029541H21.8082C23.6324 0.029541 25.1112 1.50836 25.1112 3.33258V16.5447C25.1112 18.369 23.6324 19.8478 21.8082 19.8478H4.19196C2.36774 19.8478 0.888916 18.369 0.888916 16.5447V3.33258ZM4.19196 2.23157C3.58388 2.23157 3.09094 2.72451 3.09094 3.33258V4.91122L13.0001 10.8567L22.9092 4.91122V3.33258C22.9092 2.72451 22.4162 2.23157 21.8082 2.23157H4.19196ZM22.9092 7.47921L14.133 12.7449C13.4357 13.1633 12.5645 13.1633 11.8671 12.7449L3.09094 7.47921V16.5447C3.09094 17.1528 3.58388 17.6458 4.19196 17.6458H21.8082C22.4162 17.6458 22.9092 17.1528 22.9092 16.5447V7.47921Z" fill="white"/>
</svg>
