<svg width="12" height="12" viewBox="0 0 12 12" fill="none" xmlns="http://www.w3.org/2000/svg">
<path d="M3.75 7.91964C4.16421 7.91964 4.5 7.56787 4.5 7.13393C4.5 6.69999 4.16421 6.34821 3.75 6.34821C3.33579 6.34821 3 6.69999 3 7.13393C3 7.56787 3.33579 7.91964 3.75 7.91964Z" fill="white"/>
<path d="M6.75 7.13393C6.75 7.56787 6.41421 7.91964 6 7.91964C5.58579 7.91964 5.25 7.56787 5.25 7.13393C5.25 6.69999 5.58579 6.34821 6 6.34821C6.41421 6.34821 6.75 6.69999 6.75 7.13393Z" fill="white"/>
<path d="M8.25 7.91964C8.66421 7.91964 9 7.56787 9 7.13393C9 6.69999 8.66421 6.34821 8.25 6.34821C7.83579 6.34821 7.5 6.69999 7.5 7.13393C7.5 7.56787 7.83579 7.91964 8.25 7.91964Z" fill="white"/>
<path fill-rule="evenodd" clip-rule="evenodd" d="M4 0.58631C4 0.297018 3.77614 0.0625 3.5 0.0625C3.22386 0.0625 3 0.297018 3 0.58631V1.11012H2C1.17157 1.11012 0.5 1.81367 0.5 2.68155V9.49107C0.5 10.3589 1.17157 11.0625 2 11.0625H10C10.8284 11.0625 11.5 10.3589 11.5 9.49107V2.68155C11.5 1.81367 10.8284 1.11012 10 1.11012H9V0.58631C9 0.297018 8.77614 0.0625 8.5 0.0625C8.22386 0.0625 8 0.297018 8 0.58631V1.11012H4V0.58631ZM1.5 2.68155C1.5 2.39226 1.72386 2.15774 2 2.15774H10C10.2761 2.15774 10.5 2.39226 10.5 2.68155V3.72917H1.5V2.68155ZM1.5 4.77679H10.5V9.49107C10.5 9.78036 10.2761 10.0149 10 10.0149H2C1.72386 10.0149 1.5 9.78036 1.5 9.49107V4.77679Z" fill="white"/>
</svg>
