<svg width="12" height="13" viewBox="0 0 12 13" fill="none" xmlns="http://www.w3.org/2000/svg">
<path d="M3.4278 12.2756C3.20758 12.2756 3.0361 12.2034 2.91336 12.059C2.79061 11.9182 2.72924 11.7269 2.72924 11.485V10.1583H2.51264C1.98917 10.1583 1.53971 10.0572 1.16426 9.85502C0.788809 9.65286 0.5 9.36224 0.297834 8.98318C0.099278 8.60412 0 8.14564 0 7.60773V3.40015C0 2.86224 0.099278 2.40376 0.297834 2.0247C0.49639 1.64564 0.785199 1.35502 1.16426 1.15286C1.54332 0.950692 2.00542 0.849609 2.55054 0.849609H9.44946C9.99459 0.849609 10.4567 0.950692 10.8357 1.15286C11.2148 1.35502 11.5036 1.64564 11.7022 2.0247C11.9007 2.40376 12 2.86224 12 3.40015V7.60773C12 8.14564 11.9007 8.60412 11.7022 8.98318C11.5036 9.36224 11.2148 9.65286 10.8357 9.85502C10.4567 10.0572 9.99459 10.1583 9.44946 10.1583H6.19495L4.34296 11.7937C4.15523 11.9597 3.99278 12.0807 3.8556 12.1565C3.72202 12.2359 3.57942 12.2756 3.4278 12.2756ZM3.69314 11.0626L5.40975 9.36224C5.52527 9.24672 5.63357 9.17091 5.73466 9.13481C5.83574 9.0951 5.96751 9.07524 6.12996 9.07524H9.41697C9.92238 9.07524 10.2978 8.94889 10.5433 8.69618C10.7888 8.44347 10.9116 8.06802 10.9116 7.56983V3.43264C10.9116 2.93806 10.7888 2.56441 10.5433 2.3117C10.2978 2.059 9.92238 1.93264 9.41697 1.93264H2.58303C2.07401 1.93264 1.69675 2.059 1.45126 2.3117C1.20578 2.56441 1.08303 2.93806 1.08303 3.43264V7.56983C1.08303 8.06802 1.20578 8.44347 1.45126 8.69618C1.69675 8.94889 2.07401 9.07524 2.58303 9.07524H3.2491C3.40433 9.07524 3.51625 9.10954 3.58484 9.17813C3.65704 9.24311 3.69314 9.35683 3.69314 9.51928V11.0626ZM3.2491 7.5265C3.15523 7.5265 3.07581 7.49401 3.01083 7.42903C2.94585 7.36044 2.91336 7.27921 2.91336 7.18535C2.91336 7.09149 2.94585 7.01206 3.01083 6.94708C3.07581 6.87849 3.15523 6.84419 3.2491 6.84419H6.79603C6.88989 6.84419 6.96931 6.87849 7.0343 6.94708C7.10289 7.01206 7.13718 7.09149 7.13718 7.18535C7.13718 7.27921 7.10289 7.36044 7.0343 7.42903C6.96931 7.49401 6.88989 7.5265 6.79603 7.5265H3.2491ZM3.2491 5.80448C3.15523 5.80448 3.07581 5.77199 3.01083 5.70701C2.94585 5.63842 2.91336 5.55719 2.91336 5.46333C2.91336 5.37308 2.94585 5.29365 3.01083 5.22506C3.07581 5.15647 3.15523 5.12217 3.2491 5.12217H8.69675C8.79061 5.12217 8.87004 5.15647 8.93502 5.22506C9 5.29365 9.03249 5.37308 9.03249 5.46333C9.03249 5.55719 9 5.63842 8.93502 5.70701C8.87004 5.77199 8.79061 5.80448 8.69675 5.80448H3.2491ZM3.2491 4.08246C3.15523 4.08246 3.07581 4.04997 3.01083 3.98499C2.94585 3.9164 2.91336 3.83697 2.91336 3.74672C2.91336 3.65286 2.94585 3.57344 3.01083 3.50845C3.07581 3.44347 3.15523 3.41098 3.2491 3.41098H8.69675C8.79061 3.41098 8.87004 3.44347 8.93502 3.50845C9 3.57344 9.03249 3.65286 9.03249 3.74672C9.03249 3.83697 9 3.9164 8.93502 3.98499C8.87004 4.04997 8.79061 4.08246 8.69675 4.08246H3.2491Z" fill="white"/>
</svg>
