<?xml version="1.0" encoding="UTF-8"?>
<svg id="Layer_1" data-name="Layer 1" xmlns="http://www.w3.org/2000/svg" version="1.1" viewBox="0 0 20 22">
  <defs>
    <style>
      .cls-1 {
        fill-rule: evenodd;
      }

      .cls-1, .cls-2 {
        fill: #fff;
        stroke-width: 0px;
      }
    </style>
  </defs>
  <path class="cls-2" d="M7,5c0-.6.4-1,1-1h6c.6,0,1,.4,1,1s-.4,1-1,1h-6c-.6,0-1-.4-1-1Z"/>
  <path class="cls-2" d="M6,8c-.6,0-1,.4-1,1s.4,1,1,1h8c.6,0,1-.4,1-1s-.4-1-1-1H6Z"/>
  <path class="cls-2" d="M5,13c0-.6.4-1,1-1h8c.6,0,1,.4,1,1s-.4,1-1,1H6c-.6,0-1-.4-1-1Z"/>
  <path class="cls-2" d="M6,16c-.6,0-1,.4-1,1s.4,1,1,1h4c.6,0,1-.4,1-1s-.4-1-1-1h-4Z"/>
  <path class="cls-1" d="M0,3C0,1.3,1.3,0,3,0h14c1.7,0,3,1.3,3,3v16c0,1.7-1.3,3-3,3H3c-1.7,0-3-1.3-3-3V3ZM3,2c-.6,0-1,.4-1,1v16c0,.6.4,1,1,1h14c.6,0,1-.4,1-1V3c0-.6-.4-1-1-1H3Z"/>
</svg>