<?xml version="1.0" encoding="UTF-8"?>
<svg id="Layer_1" data-name="Layer 1" xmlns="http://www.w3.org/2000/svg" version="1.1" viewBox="0 0 22 22">
  <defs>
    <style>
      .cls-1 {
        fill: #fff;
        fill-rule: evenodd;
        stroke-width: 0px;
      }
    </style>
  </defs>
  <path class="cls-1" d="M11,0c-1.7,0-3,1.3-3,3s.8,2.4,2,2.8v4.2h-4.2c-.4-1.2-1.5-2-2.8-2s-3,1.3-3,3,1.3,3,3,3,2.4-.8,2.8-2h4.2v4.2c-1.2.4-2,1.5-2,2.8s1.3,3,3,3,3-1.3,3-3-.8-2.4-2-2.8v-4.2h4.2c.4,1.2,1.5,2,2.8,2s3-1.3,3-3-1.3-3-3-3-2.4.8-2.8,2h-4.2v-4.2c1.2-.4,2-1.5,2-2.8s-1.3-3-3-3ZM10,3c0-.6.4-1,1-1s1,.4,1,1-.4,1-1,1-1-.4-1-1ZM10,19c0-.6.4-1,1-1s1,.4,1,1-.4,1-1,1-1-.4-1-1ZM19,10c-.6,0-1,.4-1,1s.4,1,1,1,1-.4,1-1-.4-1-1-1ZM2,11c0-.6.4-1,1-1s1,.4,1,1-.4,1-1,1-1-.4-1-1Z"/>
</svg>