<svg width="15" height="24" viewBox="0 0 15 24" fill="none" xmlns="http://www.w3.org/2000/svg">
<path d="M10.5442 23.9067C10.3424 23.9067 10.1471 23.8514 9.95825 23.7407C9.77596 23.6366 9.61971 23.4543 9.4895 23.1938L7.25317 18.6724C7.2076 18.5812 7.16528 18.5031 7.12622 18.438C7.09367 18.3664 7.02531 18.2655 6.92114 18.1353L4.8313 15.4985C4.53833 15.134 4.28442 14.7303 4.06958 14.2876C3.86125 13.8449 3.77661 13.3273 3.81567 12.7349L3.99146 10.2837C4.00448 10.1535 3.9589 10.0721 3.85474 10.0396C3.75708 10.0005 3.66593 10.02 3.5813 10.0981L2.63403 10.938L2.40942 13.6528C2.37687 14.0109 2.26294 14.2778 2.06763 14.4536C1.87231 14.6229 1.62817 14.6978 1.33521 14.6782C1.02922 14.6587 0.78833 14.5448 0.612549 14.3364C0.443278 14.1281 0.371663 13.8579 0.397705 13.5259L0.602783 11.0454C0.628825 10.7004 0.693929 10.4041 0.798096 10.1567C0.908773 9.90934 1.10083 9.64893 1.37427 9.37549L2.97583 7.78369C3.50317 7.27588 3.99471 6.87549 4.45044 6.58252C4.91268 6.28955 5.42375 6.14307 5.98364 6.14307C6.50448 6.14307 6.94393 6.26676 7.302 6.51416C7.66007 6.75505 7.92375 7.08057 8.09302 7.49072C8.26229 7.90088 8.33065 8.35335 8.2981 8.84814L8.08325 11.8657C8.04419 12.3996 7.98234 12.8748 7.89771 13.2915C7.81958 13.7017 7.69263 14.1867 7.51685 14.7466L7.42896 14.9907L8.70825 16.8071C8.80591 16.9438 8.90682 17.0968 9.01099 17.2661C9.11515 17.4289 9.21281 17.6079 9.30396 17.8032L11.4036 22.0415C11.4687 22.1782 11.5175 22.3052 11.55 22.4224C11.5891 22.5461 11.6086 22.673 11.6086 22.8032C11.6086 23.1418 11.5012 23.4087 11.2864 23.604C11.0715 23.8058 10.8241 23.9067 10.5442 23.9067ZM1.07153 23.9067C0.778564 23.9067 0.527913 23.8058 0.31958 23.604C0.117757 23.4087 0.0168457 23.1613 0.0168457 22.8618C0.0168457 22.66 0.0591634 22.4842 0.143799 22.3345C0.228434 22.1912 0.339111 22.0415 0.47583 21.8853L3.46411 18.3501L3.98169 15.8989L5.78833 18.1353C5.75578 18.259 5.71997 18.3826 5.68091 18.5063C5.64836 18.6235 5.61255 18.7472 5.57349 18.8774C5.50838 19.0662 5.44979 19.2095 5.39771 19.3071C5.34562 19.4048 5.2382 19.5513 5.07544 19.7466L1.93091 23.4868C1.70304 23.7668 1.41659 23.9067 1.07153 23.9067ZM11.0129 12.354C10.7135 12.354 10.4661 12.3247 10.2708 12.2661C10.0819 12.201 9.8964 12.0806 9.71411 11.9048L8.98169 11.1626L9.16724 8.48682L10.886 10.3423H13.3665C13.705 10.3423 13.9752 10.4367 14.177 10.6255C14.3788 10.8078 14.4797 11.0487 14.4797 11.3481C14.4797 11.6541 14.3788 11.8983 14.177 12.0806C13.9817 12.2629 13.7148 12.354 13.3762 12.354H11.0129ZM7.22388 5.29346C6.78768 5.29346 6.3938 5.18604 6.04224 4.97119C5.69067 4.74984 5.41073 4.46338 5.20239 4.11182C4.99406 3.76025 4.88989 3.37614 4.88989 2.95947C4.88989 2.52979 4.99406 2.1359 5.20239 1.77783C5.41073 1.41325 5.69067 1.12679 6.04224 0.918457C6.3938 0.710124 6.78768 0.605957 7.22388 0.605957C7.65356 0.605957 8.04744 0.710124 8.40552 0.918457C8.76359 1.12679 9.04679 1.41325 9.25513 1.77783C9.46346 2.1359 9.56763 2.52979 9.56763 2.95947C9.56763 3.37614 9.46346 3.76025 9.25513 4.11182C9.04679 4.46338 8.76359 4.74984 8.40552 4.97119C8.04744 5.18604 7.65356 5.29346 7.22388 5.29346Z" fill="white"/>
</svg>
