<svg width="25" height="25" viewBox="0 0 25 25" fill="none" xmlns="http://www.w3.org/2000/svg">
<path fill-rule="evenodd" clip-rule="evenodd" d="M1.25317 4.05908C1.25317 2.40223 2.59632 1.05908 4.25317 1.05908H20.2532C21.91 1.05908 23.2532 2.40223 23.2532 4.05908V15.0591C23.2532 16.7159 21.91 18.0591 20.2532 18.0591H15.473L16.073 21.0591H17.2532C17.8055 21.0591 18.2532 21.5068 18.2532 22.0591C18.2532 22.6114 17.8055 23.0591 17.2532 23.0591H7.25317C6.70089 23.0591 6.25317 22.6114 6.25317 22.0591C6.25317 21.5068 6.70089 21.0591 7.25317 21.0591H8.43337L9.03337 18.0591H4.25317C2.59632 18.0591 1.25317 16.7159 1.25317 15.0591V4.05908ZM11.073 18.0591L10.473 21.0591H14.0334L13.4334 18.0591H11.073ZM4.25317 3.05908C3.70089 3.05908 3.25317 3.5068 3.25317 4.05908V12.0591H21.2532V4.05908C21.2532 3.5068 20.8055 3.05908 20.2532 3.05908H4.25317ZM21.2532 14.0591H3.25317V15.0591C3.25317 15.6114 3.70089 16.0591 4.25317 16.0591H20.2532C20.8055 16.0591 21.2532 15.6114 21.2532 15.0591V14.0591Z" fill="white"/>
</svg>
