<svg width="25" height="25" viewBox="0 0 25 25" fill="none" xmlns="http://www.w3.org/2000/svg">
<path fill-rule="evenodd" clip-rule="evenodd" d="M15.2532 2.68652C15.2532 2.13424 15.7009 1.68652 16.2532 1.68652H22.2532C22.8055 1.68652 23.2532 2.13424 23.2532 2.68652V8.68652C23.2532 9.23881 22.8055 9.68652 22.2532 9.68652C21.7009 9.68652 21.2532 9.23881 21.2532 8.68652V5.10074L9.96028 16.3936C9.56976 16.7842 8.93659 16.7842 8.54607 16.3936C8.15554 16.0031 8.15554 15.3699 8.54607 14.9794L19.839 3.68652H16.2532C15.7009 3.68652 15.2532 3.23881 15.2532 2.68652Z" fill="white"/>
<path fill-rule="evenodd" clip-rule="evenodd" d="M4.25317 5.68652C3.70089 5.68652 3.25317 6.13424 3.25317 6.68652V20.6865C3.25317 21.2388 3.70089 21.6865 4.25317 21.6865H18.2532C18.8055 21.6865 19.2532 21.2388 19.2532 20.6865V12.6865C19.2532 12.1342 19.7009 11.6865 20.2532 11.6865C20.8055 11.6865 21.2532 12.1342 21.2532 12.6865V20.6865C21.2532 22.3434 19.91 23.6865 18.2532 23.6865H4.25317C2.59632 23.6865 1.25317 22.3434 1.25317 20.6865V6.68652C1.25317 5.02967 2.59632 3.68652 4.25317 3.68652H12.2532C12.8055 3.68652 13.2532 4.13424 13.2532 4.68652C13.2532 5.23881 12.8055 5.68652 12.2532 5.68652H4.25317Z" fill="white"/>
</svg>
