<svg width="25" height="25" viewBox="0 0 25 25" fill="none" xmlns="http://www.w3.org/2000/svg">
<g clip-path="url(#clip0_369_754)">
<path fill-rule="evenodd" clip-rule="evenodd" d="M9.25317 6.8728C7.59632 6.8728 6.25317 8.21595 6.25317 9.8728C6.25317 11.5297 7.59632 12.8728 9.25317 12.8728C10.91 12.8728 12.2532 11.5297 12.2532 9.8728C12.2532 8.21595 10.91 6.8728 9.25317 6.8728ZM8.25317 9.8728C8.25317 9.32052 8.70089 8.8728 9.25317 8.8728C9.80546 8.8728 10.2532 9.32052 10.2532 9.8728C10.2532 10.4251 9.80546 10.8728 9.25317 10.8728C8.70089 10.8728 8.25317 10.4251 8.25317 9.8728Z" fill="white"/>
<path fill-rule="evenodd" clip-rule="evenodd" d="M3.25317 2.8728C2.70089 2.8728 2.25317 3.32052 2.25317 3.8728V12.8728C2.25317 13.138 2.35853 13.3924 2.54607 13.5799L12.1319 23.1657C13.3034 24.3373 15.2029 24.3373 16.3745 23.1657L22.5461 16.9941C23.7176 15.8225 23.7176 13.9231 22.5461 12.7515L12.9603 3.1657C12.7727 2.97816 12.5184 2.8728 12.2532 2.8728H3.25317ZM4.25317 12.4586V4.8728H11.839L21.1319 14.1657C21.5224 14.5562 21.5224 15.1894 21.1319 15.5799L14.9603 21.7515C14.5698 22.142 13.9366 22.142 13.5461 21.7515L4.25317 12.4586Z" fill="white"/>
</g>
<defs>
<clipPath id="clip0_369_754">
<rect width="24" height="24" fill="white" transform="translate(0.253174 0.872803)"/>
</clipPath>
</defs>
</svg>
