<svg width="25" height="25" viewBox="0 0 25 25" fill="none" xmlns="http://www.w3.org/2000/svg">
<path fill-rule="evenodd" clip-rule="evenodd" d="M12.2532 14.9412C10.044 14.9412 8.25317 13.1503 8.25317 10.9412C8.25317 8.73202 10.044 6.94116 12.2532 6.94116C14.4623 6.94116 16.2532 8.73202 16.2532 10.9412C16.2532 13.1503 14.4623 14.9412 12.2532 14.9412ZM12.2532 12.9412C13.3577 12.9412 14.2532 12.0457 14.2532 10.9412C14.2532 9.83659 13.3577 8.94116 12.2532 8.94116C11.1486 8.94116 10.2532 9.83659 10.2532 10.9412C10.2532 12.0457 11.1486 12.9412 12.2532 12.9412Z" fill="white"/>
<path fill-rule="evenodd" clip-rule="evenodd" d="M1.25317 4.94116C1.25317 3.28431 2.59632 1.94116 4.25317 1.94116H20.2532C21.91 1.94116 23.2532 3.28431 23.2532 4.94116V16.9412C23.2532 18.598 21.91 19.9412 20.2532 19.9412H19.1592C19.2209 20.2642 19.2532 20.598 19.2532 20.9412C19.2532 21.6956 18.9862 22.3448 18.4612 22.831C17.9745 23.2819 17.341 23.5227 16.7202 23.6657C15.5226 23.9414 13.9299 23.9413 12.3516 23.9412H12.1548C10.5764 23.9413 8.98374 23.9414 7.78616 23.6657C7.16532 23.5227 6.53188 23.2819 6.04511 22.831C5.52017 22.3448 5.25317 21.6956 5.25317 20.9412C5.25317 20.598 5.28544 20.2642 5.34714 19.9412H4.25317C2.59632 19.9412 1.25317 18.598 1.25317 16.9412V4.94116ZM6.17902 17.9412C7.41723 16.1051 9.7487 14.9412 12.2532 14.9412C14.7576 14.9412 17.0891 16.1051 18.3273 17.9412H20.2532C20.8055 17.9412 21.2532 17.4934 21.2532 16.9412V4.94116C21.2532 4.38888 20.8055 3.94116 20.2532 3.94116H4.25317C3.70089 3.94116 3.25317 4.38888 3.25317 4.94116V16.9412C3.25317 17.4934 3.70089 17.9412 4.25317 17.9412H6.17902ZM7.25317 20.9412C7.25317 18.895 9.31329 16.9412 12.2532 16.9412C15.1931 16.9412 17.2532 18.895 17.2532 20.9412C17.2532 21.1868 17.1844 21.2876 17.1021 21.3638C16.9816 21.4754 16.7364 21.6096 16.2714 21.7167C15.3223 21.9352 13.9565 21.9412 12.2532 21.9412C10.5498 21.9412 9.184 21.9352 8.23491 21.7167C7.76996 21.6096 7.52472 21.4754 7.40425 21.3638C7.32196 21.2876 7.25317 21.1868 7.25317 20.9412Z" fill="white"/>
</svg>
