<svg width="10" height="11" viewBox="0 0 10 11" fill="none" xmlns="http://www.w3.org/2000/svg">
<path d="M8.63636 10.5625C9.38948 10.5625 10 9.95198 10 9.19886L10 1.92614C10 1.17302 9.38948 0.5625 8.63636 0.5625H1.36364C0.610522 0.5625 0 1.17302 0 1.92614V3.28977C0 3.54081 0.203508 3.74432 0.454546 3.74432C0.705584 3.74432 0.909091 3.54081 0.909091 3.28977L0.909092 1.92614C0.909092 1.6751 1.1126 1.47159 1.36364 1.47159L8.63636 1.47159C8.8874 1.47159 9.09091 1.6751 9.09091 1.92614L9.09091 9.19886C9.09091 9.4499 8.8874 9.65341 8.63636 9.65341L1.36364 9.65341C1.1126 9.65341 0.909091 9.4499 0.909091 9.19886L0.909091 7.83523C0.909091 7.58419 0.705584 7.38068 0.454546 7.38068C0.203507 7.38068 0 7.58419 0 7.83523V9.19886C0 9.95198 0.610521 10.5625 1.36364 10.5625L8.63636 10.5625Z" fill="white"/>
<path d="M5.13313 7.70209C4.95562 7.52458 4.95562 7.23678 5.13313 7.05927L6.17536 6.01705H2.72725C2.47621 6.01705 2.2727 5.81354 2.2727 5.5625C2.2727 5.31146 2.47621 5.10795 2.72725 5.10795H6.17536L5.13313 4.06573C4.95562 3.88822 4.95562 3.60042 5.13313 3.42291C5.31064 3.2454 5.59845 3.2454 5.77596 3.42291L7.59414 5.24109C7.77165 5.4186 7.77165 5.7064 7.59414 5.88391L5.77596 7.70209C5.59845 7.87961 5.31064 7.87961 5.13313 7.70209Z" fill="white"/>
</svg>
