<svg width="10" height="10" viewBox="0 0 10 10" fill="none" xmlns="http://www.w3.org/2000/svg">
<path fill-rule="evenodd" clip-rule="evenodd" d="M5.66885 0.259746C5.26213 -0.00324894 4.73787 -0.0032484 4.33115 0.259746L1.05842 2.37599C0.710132 2.60121 0.5 2.98641 0.5 3.39966V7.84159C0.5 8.51588 1.04947 9.0625 1.72727 9.0625H8.27273C8.95053 9.0625 9.5 8.51588 9.5 7.84159V3.39966C9.5 2.98641 9.28987 2.60121 8.94158 2.37599L5.66885 0.259746ZM4.77705 0.94219C4.91262 0.854525 5.08738 0.854525 5.22295 0.942189L8.49568 3.05844C8.61177 3.13351 8.68182 3.26191 8.68182 3.39966V7.84159C8.68182 8.06635 8.49866 8.24856 8.27273 8.24856H6.6363L6.63636 5.18063C6.63636 4.33102 5.82436 3.77188 5.00003 3.77188C4.17571 3.77188 3.36371 4.33102 3.3637 5.18063L3.36364 8.24855L3.84711 8.24856H1.72727C1.50134 8.24856 1.31818 8.06635 1.31818 7.84159V3.39966C1.31818 3.26191 1.38823 3.13351 1.50432 3.05844L4.77705 0.94219ZM4.18182 8.24856H6.30159L5.81812 8.24855L5.81818 5.18063C5.81818 4.92371 5.53127 4.58582 5.00003 4.58582C4.46878 4.58582 4.18188 4.92371 4.18188 5.18063L4.18182 8.24856Z" fill="white"/>
</svg>
