<svg width="12" height="11" viewBox="0 0 12 11" fill="none" xmlns="http://www.w3.org/2000/svg">
<path fill-rule="evenodd" clip-rule="evenodd" d="M0 2.28968C0 1.38595 0.732625 0.65332 1.63636 0.65332H10.3636C11.2674 0.65332 12 1.38595 12 2.28968V8.83514C12 9.73888 11.2674 10.4715 10.3636 10.4715H1.63636C0.732625 10.4715 0 9.73888 0 8.83514V2.28968ZM1.63636 1.74423C1.33512 1.74423 1.09091 1.98844 1.09091 2.28968V3.07176L6 6.01722L10.9091 3.07176V2.28968C10.9091 1.98844 10.6649 1.74423 10.3636 1.74423H1.63636ZM10.9091 4.34397L6.56127 6.95266C6.2158 7.15995 5.7842 7.15995 5.43873 6.95266L1.09091 4.34397V8.83514C1.09091 9.13638 1.33512 9.38059 1.63636 9.38059H10.3636C10.6649 9.38059 10.9091 9.13638 10.9091 8.83514V4.34397Z" fill="white"/>
</svg>
