<svg width="10" height="10" viewBox="0 0 10 10" fill="none" xmlns="http://www.w3.org/2000/svg">
<path d="M1.64009 9.0625H8.35991C8.77571 9.0625 9.07079 9.01222 9.24516 8.89909C9.41952 8.78596 9.5 8.62256 9.5 8.3963C9.5 8.06948 9.3927 7.7301 9.1915 7.37814C8.9769 7.02619 8.68182 6.6868 8.29285 6.37256C7.90387 6.05831 7.43443 5.80691 6.87109 5.6058C6.32116 5.40468 5.69076 5.31669 4.99329 5.31669C4.29583 5.31669 3.67884 5.41725 3.12891 5.6058C2.57899 5.80691 2.09613 6.05831 1.70715 6.37256C1.31818 6.6868 1.00969 7.02619 0.808495 7.37814C0.607303 7.7301 0.5 8.06948 0.5 8.3963C0.5 8.62256 0.580477 8.78596 0.754844 8.89909C0.92921 9.01222 1.22429 9.0625 1.64009 9.0625ZM5.00671 4.42423C5.38227 4.42423 5.74441 4.32367 6.06632 4.13513C6.38823 3.93401 6.65648 3.67004 6.84426 3.34323C7.04545 3.00384 7.13934 2.62675 7.13934 2.21194C7.13934 1.79714 7.04545 1.43261 6.84426 1.1058C6.64307 0.77898 6.38823 0.527584 6.06632 0.339036C5.74441 0.150489 5.38227 0.0625 5.00671 0.0625C4.63115 0.0625 4.269 0.163059 3.94709 0.351606C3.62519 0.540154 3.35693 0.80412 3.16915 1.13094C2.96796 1.45775 2.87407 1.82228 2.87407 2.23708C2.87407 2.65189 2.96796 3.02898 3.16915 3.3558C3.37034 3.68261 3.62519 3.94658 3.94709 4.1477C4.269 4.34881 4.63115 4.4368 5.00671 4.4368V4.42423Z" fill="white"/>
</svg>
