<svg width="12" height="11" viewBox="0 0 12 11" fill="none" xmlns="http://www.w3.org/2000/svg">
<path fill-rule="evenodd" clip-rule="evenodd" d="M1.59006 1.01417C2.17385 0.18869 3.37102 0.139082 4.01979 0.913488L5.05736 2.15198C5.35832 2.51122 5.3995 3.02409 5.15979 3.42761L4.36049 4.77311C4.42456 4.87902 4.51139 5.00539 4.62246 5.14953C4.82053 5.40657 5.07361 5.69193 5.35585 5.97699C5.83115 6.45704 6.36326 6.91033 6.8213 7.21664L8.12753 6.42506C8.52706 6.18294 9.03485 6.22454 9.39053 6.52851L10.6759 7.62703C11.4126 8.25665 11.3654 9.41846 10.5801 9.985C9.36912 10.8587 7.74149 11.0664 6.40796 10.2444C5.48866 9.67774 4.36218 8.87773 3.3544 7.85986C2.42009 6.91621 1.73886 5.93799 1.26373 5.12426C0.48103 3.78378 0.756066 2.19345 1.59006 1.01417ZM3.18894 1.62355C2.9985 1.39623 2.64708 1.41079 2.47571 1.65311C1.82736 2.56989 1.6884 3.68757 2.20122 4.56585C2.64004 5.31738 3.26748 6.21747 4.124 7.08256C5.05148 8.01933 6.10158 8.76773 6.97496 9.30611C7.87491 9.86086 9.02936 9.75289 9.94754 9.09049C10.1554 8.94049 10.1679 8.6329 9.97289 8.4662L8.6875 7.36767L7.09758 8.33117C6.92925 8.43318 6.71958 8.43572 6.54888 8.33782C5.92398 7.97942 5.19358 7.3677 4.58625 6.75429C4.27962 6.44459 3.99505 6.12512 3.76355 5.82469C3.5385 5.53263 3.33932 5.22769 3.23222 4.95042C3.17101 4.79193 3.1859 4.61375 3.27256 4.46787L4.22651 2.86204L3.18894 1.62355Z" fill="white"/>
</svg>
